<svg width="121.000000" height="13.000000" viewBox="0 0 121 13" fill="none" xmlns="http://www.w3.org/2000/svg" xmlns:xlink="http://www.w3.org/1999/xlink">
	<desc>
			Created with Pixso.
	</desc>
	<defs/>
	<path id="Line 10" d="M30.13 -0.5L121 -0.5L121 2.5L30.13 2.5C29.29 2.5 28.63 1.83 28.63 1C28.63 0.16 29.29 -0.5 30.13 -0.5Z" fill="#FFFFFF" fill-opacity="1.000000" fill-rule="evenodd"/>
	<path id="Line 11" d="M1 4.5L121 4.5L121 7.5L1 7.5C0.16 7.5 -0.5 6.83 -0.5 6C-0.5 5.16 0.16 4.5 1 4.5Z" fill="#FFFFFF" fill-opacity="1.000000" fill-rule="evenodd"/>
	<path id="Line 12" d="M11.96 9.5L121 9.5L121 12.5L11.96 12.5C11.12 12.5 10.46 11.84 10.46 11C10.46 10.16 11.12 9.5 11.96 9.5Z" fill="#FFFFFF" fill-opacity="1.000000" fill-rule="evenodd"/>
</svg>
