<svg width="20.000000" height="20.000000" viewBox="0 0 20 20" fill="none" xmlns="http://www.w3.org/2000/svg" xmlns:xlink="http://www.w3.org/1999/xlink">
	<desc>
			Created with Pixso.
	</desc>
	<defs>
		<clipPath id="clip74_354">
			<rect id="emojione-monotone:stopwatch" width="20.000000" height="20.000000" fill="white" fill-opacity="0"/>
		</clipPath>
	</defs>
	<rect id="emojione-monotone:stopwatch" width="20.000000" height="20.000000" fill="#FFFFFF" fill-opacity="0"/>
	<g clip-path="url(#clip74_354)">
		<path id="Vector" d="M15.72 7.13L16.12 6.74L16.43 7.04L17.36 6.12C17.4 6.08 17.44 6.03 17.46 5.97C17.48 5.91 17.5 5.85 17.5 5.79C17.5 5.73 17.48 5.67 17.46 5.61C17.44 5.55 17.4 5.5 17.36 5.46L16.52 4.63C16.43 4.54 16.31 4.49 16.18 4.49C16.06 4.49 15.94 4.54 15.85 4.63L14.92 5.55L15.23 5.85L14.83 6.25C13.59 5.21 12.05 4.6 10.44 4.5L10.44 4.13C11.22 3.94 11.79 3.24 11.79 2.41C11.8 1.42 10.99 0.62 10 0.62C9 0.62 8.19 1.42 8.19 2.41C8.19 3.24 8.77 3.94 9.55 4.13L9.55 4.5C7.94 4.6 6.39 5.21 5.16 6.25L4.76 5.85L5.07 5.55L4.14 4.63C4.05 4.54 3.93 4.49 3.8 4.49C3.68 4.49 3.56 4.54 3.47 4.63L2.63 5.46C2.59 5.5 2.55 5.55 2.53 5.61C2.51 5.67 2.49 5.73 2.49 5.79C2.49 5.85 2.51 5.91 2.53 5.97C2.55 6.03 2.59 6.08 2.63 6.12L3.56 7.04L3.87 6.74L4.27 7.13C3.16 8.43 2.5 10.1 2.5 11.93C2.5 16.04 5.85 19.37 10 19.37C14.14 19.37 17.5 16.04 17.5 11.93C17.5 10.1 16.83 8.43 15.72 7.13ZM9.24 2.09L9.24 3.43C9.08 3.32 8.94 3.16 8.85 2.98C8.76 2.81 8.71 2.61 8.71 2.41C8.71 1.7 9.29 1.13 10 1.13C10.7 1.13 11.28 1.7 11.28 2.41C11.28 2.83 11.07 3.2 10.75 3.43L10.75 2.09C10.75 1.64 9.24 1.64 9.24 2.09ZM10 18.38C6.41 18.38 3.5 15.49 3.5 11.93C3.5 8.37 6.41 5.48 10 5.48C13.58 5.48 16.49 8.37 16.49 11.93C16.49 15.49 13.58 18.38 10 18.38Z" fill="#F5F5F5" fill-opacity="1.000000" fill-rule="evenodd"/>
		<path id="Vector" d="M15.72 7.13L16.12 6.74L16.43 7.04L17.36 6.12C17.4 6.08 17.44 6.03 17.46 5.97C17.48 5.91 17.5 5.85 17.5 5.79C17.5 5.73 17.48 5.67 17.46 5.61C17.44 5.55 17.4 5.5 17.36 5.46L16.52 4.63C16.43 4.54 16.31 4.49 16.18 4.49C16.06 4.49 15.94 4.54 15.85 4.63L14.92 5.55L15.23 5.85L14.83 6.25C13.59 5.21 12.05 4.6 10.44 4.5L10.44 4.13C11.22 3.94 11.79 3.24 11.79 2.41C11.8 1.42 10.99 0.62 10 0.62C9 0.62 8.19 1.42 8.19 2.41C8.19 3.24 8.77 3.94 9.55 4.13L9.55 4.5C7.94 4.6 6.39 5.21 5.16 6.25L4.76 5.85L5.07 5.55L4.14 4.63C4.05 4.54 3.93 4.49 3.8 4.49C3.68 4.49 3.56 4.54 3.47 4.63L2.63 5.46C2.59 5.5 2.55 5.55 2.53 5.61C2.51 5.67 2.49 5.73 2.49 5.79C2.49 5.85 2.51 5.91 2.53 5.97C2.55 6.03 2.59 6.08 2.63 6.12L3.56 7.04L3.87 6.74L4.27 7.13C3.16 8.43 2.5 10.1 2.5 11.93C2.5 16.04 5.85 19.37 10 19.37C14.14 19.37 17.5 16.04 17.5 11.93C17.5 10.1 16.83 8.43 15.72 7.13ZM9.24 2.09L9.24 3.43C9.08 3.32 8.94 3.16 8.85 2.98C8.76 2.81 8.71 2.61 8.71 2.41C8.71 1.7 9.29 1.13 10 1.13C10.7 1.13 11.28 1.7 11.28 2.41C11.28 2.83 11.07 3.2 10.75 3.43L10.75 2.09C10.75 1.64 9.24 1.64 9.24 2.09ZM10 18.38C6.41 18.38 3.5 15.49 3.5 11.93C3.5 8.37 6.41 5.48 10 5.48C13.58 5.48 16.49 8.37 16.49 11.93C16.49 15.49 13.58 18.38 10 18.38Z" fill="#FFFFFF" fill-opacity="0.500000" fill-rule="evenodd"/>
		<path id="Vector" d="M10 5.98L10 6.47L9.78 6.47L9.78 8.15L10 8.15L10 11.09C9.53 11.09 9.15 11.47 9.15 11.93C9.15 12.39 9.53 12.77 10 12.77C10.09 12.77 10.19 12.75 10.28 12.72L13.44 15.31L13.44 15.31L14.26 16.12C15.33 15.04 16 13.56 16 11.93C16 8.64 13.31 5.98 10 5.98ZM14.23 15.25L10.84 11.92C10.84 11.7 10.75 11.49 10.6 11.34L10.6 6.61C11.28 6.68 11.93 6.88 12.51 7.19L12.14 7.83L12.5 8.04L12.87 7.4C13.55 7.83 14.13 8.4 14.56 9.07L13.92 9.44L14.13 9.8L14.77 9.44C15.15 10.14 15.36 10.92 15.39 11.72L13.8 11.72L13.8 12.14L15.39 12.14C15.36 12.94 15.15 13.72 14.77 14.43L14.13 14.06L13.92 14.42L14.56 14.79C14.46 14.95 14.35 15.1 14.23 15.25ZM9.78 15.71L10.21 15.71L10.21 17.39L9.78 17.39L9.78 15.71ZM4.5 11.72L6.19 11.72L6.19 12.14L4.5 12.14L4.5 11.72ZM7.06 7.31L7.48 8.04L7.85 7.83L7.43 7.1L7.06 7.31ZM6.07 9.44L5.34 9.02L5.13 9.38L5.86 9.8L6.07 9.44ZM5.13 14.48L5.34 14.84L6.07 14.42L5.86 14.06L5.13 14.48ZM7.06 16.55L7.43 16.76L7.85 16.03L7.48 15.82L7.06 16.55ZM12.14 16.03L12.56 16.76L12.93 16.55L12.51 15.82L12.14 16.03Z" fill="#F5F5F5" fill-opacity="1.000000" fill-rule="evenodd"/>
		<path id="Vector" d="M10 5.98L10 6.47L9.78 6.47L9.78 8.15L10 8.15L10 11.09C9.53 11.09 9.15 11.47 9.15 11.93C9.15 12.39 9.53 12.77 10 12.77C10.09 12.77 10.19 12.75 10.28 12.72L13.44 15.31L13.44 15.31L14.26 16.12C15.33 15.04 16 13.56 16 11.93C16 8.64 13.31 5.98 10 5.98ZM14.23 15.25L10.84 11.92C10.84 11.7 10.75 11.49 10.6 11.34L10.6 6.61C11.28 6.68 11.93 6.88 12.51 7.19L12.14 7.83L12.5 8.04L12.87 7.4C13.55 7.83 14.13 8.4 14.56 9.07L13.92 9.44L14.13 9.8L14.77 9.44C15.15 10.14 15.36 10.92 15.39 11.72L13.8 11.72L13.8 12.14L15.39 12.14C15.36 12.94 15.15 13.72 14.77 14.43L14.13 14.06L13.92 14.42L14.56 14.79C14.46 14.95 14.35 15.1 14.23 15.25ZM9.78 15.71L10.21 15.71L10.21 17.39L9.78 17.39L9.78 15.71ZM4.5 11.72L6.19 11.72L6.19 12.14L4.5 12.14L4.5 11.72ZM7.06 7.31L7.48 8.04L7.85 7.83L7.43 7.1L7.06 7.31ZM6.07 9.44L5.34 9.02L5.13 9.38L5.86 9.8L6.07 9.44ZM5.13 14.48L5.34 14.84L6.07 14.42L5.86 14.06L5.13 14.48ZM7.06 16.55L7.43 16.76L7.85 16.03L7.48 15.82L7.06 16.55ZM12.14 16.03L12.56 16.76L12.93 16.55L12.51 15.82L12.14 16.03Z" fill="#FFFFFF" fill-opacity="0.500000" fill-rule="evenodd"/>
	</g>
</svg>
