<svg width="20.000000" height="20.000000" viewBox="0 0 20 20" fill="none" xmlns="http://www.w3.org/2000/svg" xmlns:xlink="http://www.w3.org/1999/xlink">
	<desc>
			Created with Pixso.
	</desc>
	<defs>
		<clipPath id="clip74_359">
			<rect id="bx:map" width="20.000000" height="20.000000" fill="white" fill-opacity="0"/>
		</clipPath>
	</defs>
	<rect id="bx:map" width="20.000000" height="20.000000" fill="#FFFFFF" fill-opacity="0"/>
	<g clip-path="url(#clip74_359)">
		<path id="Vector" d="M10.16 11.66C12.03 11.66 13.55 10.17 13.55 8.33C13.55 6.49 12.03 5 10.16 5C8.29 5 6.77 6.49 6.77 8.33C6.77 10.17 8.29 11.66 10.16 11.66ZM10.16 6.66C11.09 6.66 11.85 7.41 11.85 8.33C11.85 9.25 11.09 10 10.16 10C9.23 10 8.47 9.25 8.47 8.33C8.47 7.41 9.23 6.66 10.16 6.66Z" fill="#F5F5F5" fill-opacity="1.000000" fill-rule="evenodd"/>
		<path id="Vector" d="M10.16 11.66C12.03 11.66 13.55 10.17 13.55 8.33C13.55 6.49 12.03 5 10.16 5C8.29 5 6.77 6.49 6.77 8.33C6.77 10.17 8.29 11.66 10.16 11.66ZM10.16 6.66C11.09 6.66 11.85 7.41 11.85 8.33C11.85 9.25 11.09 10 10.16 10C9.23 10 8.47 9.25 8.47 8.33C8.47 7.41 9.23 6.66 10.16 6.66Z" fill="#FFFFFF" fill-opacity="0.500000" fill-rule="evenodd"/>
		<path id="Vector" d="M9.67 18.17C9.81 18.27 9.98 18.33 10.16 18.33C10.33 18.33 10.51 18.27 10.65 18.17C10.91 17.99 16.96 13.7 16.93 8.33C16.93 4.65 13.89 1.66 10.16 1.66C6.42 1.66 3.38 4.65 3.38 8.32C3.36 13.7 9.41 17.99 9.67 18.17ZM10.16 3.33C12.96 3.33 15.24 5.57 15.24 8.33C15.26 12.03 11.52 15.35 10.16 16.44C8.79 15.35 5.06 12.03 5.08 8.33C5.08 5.57 7.36 3.33 10.16 3.33Z" fill="#F5F5F5" fill-opacity="1.000000" fill-rule="evenodd"/>
		<path id="Vector" d="M9.67 18.17C9.81 18.27 9.98 18.33 10.16 18.33C10.33 18.33 10.51 18.27 10.65 18.17C10.91 17.99 16.96 13.7 16.93 8.33C16.93 4.65 13.89 1.66 10.16 1.66C6.42 1.66 3.38 4.65 3.38 8.32C3.36 13.7 9.41 17.99 9.67 18.17ZM10.16 3.33C12.96 3.33 15.24 5.57 15.24 8.33C15.26 12.03 11.52 15.35 10.16 16.44C8.79 15.35 5.06 12.03 5.08 8.33C5.08 5.57 7.36 3.33 10.16 3.33Z" fill="#FFFFFF" fill-opacity="0.500000" fill-rule="evenodd"/>
	</g>
</svg>
