<svg width="97.000000" height="90.000000" viewBox="0 0 97 90" fill="none" xmlns="http://www.w3.org/2000/svg" xmlns:xlink="http://www.w3.org/1999/xlink">
	<desc>
			Created with Pixso.
	</desc>
	<defs/>
	<path id="Subtract 4" d="M43 51.18C54.45 50.55 63.54 41.07 63.54 29.47C63.54 17.86 54.45 8.38 43 7.76C42.34 7.72 41.8 8.27 41.8 8.93C41.8 9.6 42.34 10.14 43 10.18C53.12 10.8 61.12 19.2 61.12 29.47C61.12 39.73 53.12 48.13 43 48.76C42.34 48.8 41.8 49.33 41.8 50C41.8 50.67 42.34 51.21 43 51.18Z" fill="#FFFFFF" fill-opacity="1.000000" fill-rule="nonzero"/>
	<circle id="Ellipse 2" cx="41.802490" cy="29.471436" r="14.494208" fill="#FFFFFF" fill-opacity="1.000000"/>
	<path id="Subtract 5" d="M12.35 30.67C12.98 46.39 25.93 58.94 41.8 58.94C58.07 58.94 71.27 45.74 71.27 29.47C71.27 13.59 58.72 0.65 43.01 0.02C42.34 -0.01 41.8 0.54 41.8 1.2C41.8 1.87 42.34 2.41 43.01 2.44C57.39 3.07 68.85 14.93 68.85 29.47C68.85 44.41 56.74 56.52 41.8 56.52C27.26 56.52 15.4 45.06 14.77 30.67C14.74 30.01 14.2 29.47 13.53 29.47C12.87 29.47 12.32 30.01 12.35 30.67Z" fill="#FFFFFF" fill-opacity="1.000000" fill-rule="nonzero"/>
	<path id="Subtract" d="M43 6.31C55.25 6.93 64.99 17.06 64.99 29.47C64.99 42.27 54.61 52.66 41.8 52.66C35.73 52.66 30.21 50.33 26.08 46.52C25.58 46.06 24.8 46.06 24.32 46.55C23.87 47.02 23.87 47.77 24.35 48.21C28.92 52.47 35.06 55.07 41.8 55.07C55.94 55.07 67.4 43.61 67.4 29.47C67.4 15.73 56.59 4.52 43.01 3.89C42.34 3.86 41.8 4.4 41.8 5.07C41.8 5.73 42.34 6.27 43 6.31Z" fill="#FFFFFF" fill-opacity="1.000000" fill-rule="nonzero"/>
	<path id="Union" d="M-0.01 86.96L-0.01 70.72L4.06 70.72Q8.1 70.72 10.21 72.74Q10.4 72.92 10.57 73.12L10.57 73.12Q12.31 75.11 12.31 78.61Q12.31 81.33 11.1 83.3L11.1 83.3Q10.66 84.03 10.05 84.65Q9.65 85.06 9.2 85.39Q7.1 86.96 3.82 86.96L-0.01 86.96ZM13.53 86.96L13.53 70.72L21.12 70.72L21.12 71.75L14.65 71.75L14.65 78.26L20.66 78.26L20.66 78.27L23.04 78.27L23.04 70.72L30.63 70.72L30.63 71.75L24.16 71.75L24.16 78.27L26.56 78.27L26.56 79.29L24.16 79.29L24.16 86.96L23.04 86.96L23.04 79.29L20.07 79.29L20.07 79.28L14.65 79.28L14.65 85.94L21.49 85.94L21.49 86.96L13.53 86.96ZM51.09 70.72L52.21 70.72L52.21 86.96L51.09 86.96L51.09 70.72ZM65.78 86.96L56.11 73.84C55.91 73.57 55.74 73.31 55.59 73.04L55.44 72.82L55.4 72.82C55.41 73.01 55.42 73.25 55.42 73.53L55.42 86.96L54.3 86.96L54.3 70.72L55.16 70.72L64.76 83.73C64.97 84.02 65.2 84.37 65.45 84.77L65.51 84.77C65.47 84.25 65.45 83.79 65.45 83.42L65.45 70.72L66.57 70.72L66.57 86.96L65.78 86.96ZM68.65 70.72L69.77 70.72L69.77 86.96L68.65 86.96L68.65 70.72ZM76.27 71.75L76.27 86.96L75.16 86.96L75.16 71.75L70.47 71.75L70.47 70.72L80.96 70.72L80.96 71.75L76.27 71.75ZM1.11 71.75L1.11 85.94L3.66 85.94Q7.13 85.94 9.06 84.22Q9.14 84.15 9.21 84.07Q9.4 83.89 9.58 83.68L9.58 83.68Q11.15 81.84 11.15 78.66Q11.15 75.38 9.51 73.65Q7.7 71.75 3.89 71.75L1.11 71.75ZM33.93 89.99L33.93 88.98L41.8 88.98L41.8 89.99L33.93 89.99ZM43.25 89.99L43.25 88.98L51.09 88.98L51.09 89.99L43.25 89.99ZM79.56 88.98L87.36 88.98L87.36 89.99L79.56 89.99L79.56 88.98ZM88.81 89.99L88.81 88.98L96.73 88.98L96.73 89.99L88.81 89.99Z" fill="#FFFFFF" fill-opacity="1.000000" fill-rule="evenodd"/>
</svg>
