<svg width="27.000000" height="24.000000" viewBox="0 0 27 24" fill="none" xmlns="http://www.w3.org/2000/svg" xmlns:xlink="http://www.w3.org/1999/xlink">
	<desc>
			Created with Pixso.
	</desc>
	<defs>
		<clipPath id="clip60_438">
			<rect id="material-symbols:call" width="26.828276" height="24.000000" transform="translate(-0.001221 0.000000)" fill="white" fill-opacity="0"/>
		</clipPath>
	</defs>
	<rect id="material-symbols:call" width="26.828276" height="24.000000" transform="translate(-0.001221 0.000000)" fill="#FFFFFF" fill-opacity="0"/>
	<g clip-path="url(#clip60_438)">
		<path id="Vector" d="M22.29 21C19.97 21 17.66 20.54 15.39 19.63C13.12 18.73 11.05 17.44 9.19 15.77C7.33 14.1 5.89 12.25 4.87 10.22C3.86 8.19 3.35 6.13 3.35 4.05C3.35 3.75 3.46 3.5 3.68 3.3C3.91 3.1 4.19 3 4.52 3L9.05 3C9.31 3 9.54 3.07 9.75 3.23C9.95 3.39 10.07 3.58 10.11 3.8L10.84 7.3C10.87 7.56 10.86 7.79 10.81 7.97C10.75 8.15 10.65 8.31 10.5 8.44L7.79 10.89C8.16 11.51 8.61 12.11 9.12 12.68C9.63 13.26 10.19 13.81 10.81 14.35C11.39 14.86 11.99 15.34 12.63 15.78C13.26 16.23 13.93 16.63 14.64 17L17.26 14.64C17.43 14.5 17.65 14.38 17.92 14.31C18.19 14.23 18.46 14.21 18.72 14.25L22.57 14.95C22.84 15.01 23.05 15.13 23.22 15.31C23.38 15.48 23.47 15.68 23.47 15.89L23.47 19.95C23.47 20.25 23.36 20.5 23.13 20.7C22.91 20.89 22.63 21 22.29 21Z" fill="#F5F5F5" fill-opacity="1.000000" fill-rule="nonzero"/>
	</g>
</svg>
