<svg width="18.000000" height="25.000000" viewBox="0 0 18 25" fill="none" xmlns="http://www.w3.org/2000/svg" xmlns:xlink="http://www.w3.org/1999/xlink">
	<desc>
			Created with Pixso.
	</desc>
	<defs/>
	<path id="Vector" d="M16.6 10.41L1.96 0.08C1.72 -0.09 1.44 -0.19 1.15 -0.19C0.86 -0.2 0.57 -0.12 0.32 0.05C0.07 0.21 -0.14 0.44 -0.28 0.73C-0.43 1.01 -0.5 1.34 -0.5 1.67L-0.5 22.32C-0.5 22.82 -0.33 23.29 -0.03 23.64C0.28 23.99 0.69 24.18 1.12 24.18C1.42 24.18 1.71 24.09 1.97 23.91L16.6 13.58C16.83 13.41 17.03 13.18 17.16 12.9C17.3 12.63 17.37 12.31 17.37 12C17.37 11.68 17.3 11.37 17.16 11.09C17.03 10.81 16.83 10.58 16.6 10.41L16.6 10.41ZM1.12 22.3L1.12 1.68L15.73 12L1.12 22.3Z" fill="#F5F5F5" fill-opacity="1.000000" fill-rule="evenodd"/>
	<path id="Vector" d="M16.6 10.41L1.96 0.08C1.72 -0.09 1.44 -0.19 1.15 -0.19C0.86 -0.2 0.57 -0.12 0.32 0.05C0.07 0.21 -0.14 0.44 -0.28 0.73C-0.43 1.01 -0.5 1.34 -0.5 1.67L-0.5 22.32C-0.5 22.82 -0.33 23.29 -0.03 23.64C0.28 23.99 0.69 24.18 1.12 24.18C1.42 24.18 1.71 24.09 1.97 23.91L16.6 13.58C16.83 13.41 17.03 13.18 17.16 12.9C17.3 12.63 17.37 12.31 17.37 12C17.37 11.68 17.3 11.37 17.16 11.09C17.03 10.81 16.83 10.58 16.6 10.41L16.6 10.41ZM1.12 22.3L1.12 1.68L15.73 12L1.12 22.3Z" fill="#FFFFFF" fill-opacity="0.500000" fill-rule="evenodd"/>
</svg>
