<svg width="65.000000" height="12.000000" viewBox="0 0 65 12" fill="none" xmlns="http://www.w3.org/2000/svg" xmlns:xlink="http://www.w3.org/1999/xlink">
	<desc>
			Created with Pixso.
	</desc>
	<defs/>
	<path id="Union" d="M-0.01 10.11L-0.01 0L2.73 0Q5.44 0 6.86 1.25Q7.1 1.46 7.29 1.71Q8.27 2.91 8.27 4.91Q8.27 6.42 7.62 7.56Q7.28 8.17 6.75 8.67Q6.61 8.8 6.46 8.92L6.46 8.92Q4.99 10.11 2.57 10.11L-0.01 10.11ZM9.09 10.11L9.09 0L14.19 0L14.19 0.64L9.85 0.64L9.85 4.69L13.88 4.69L13.88 4.7L15.48 4.7L15.48 0L20.58 0L20.58 0.64L16.23 0.64L16.23 4.7L17.84 4.7L17.84 5.33L16.23 5.33L16.23 10.11L15.48 10.11L15.48 5.33L13.48 5.33L13.48 5.33L9.85 5.33L9.85 9.47L14.44 9.47L14.44 10.11L9.09 10.11ZM34.33 0L35.08 0L35.08 10.11L34.33 10.11L34.33 0ZM44.2 10.11L37.7 1.93Q37.5 1.69 37.35 1.44L37.25 1.3L37.22 1.3C37.23 1.42 37.24 1.57 37.24 1.74L37.24 10.11L36.48 10.11L36.48 0L37.06 0L43.52 8.1C43.66 8.27 43.81 8.49 43.98 8.74L44.02 8.74C43.99 8.42 43.98 8.13 43.98 7.9L43.98 0L44.73 0L44.73 10.11L44.2 10.11ZM46.13 0L46.88 0L46.88 10.11L46.13 10.11L46.13 0ZM51.25 0.64L51.25 10.11L50.5 10.11L50.5 0.64L47.35 0.64L47.35 0L54.4 0L54.4 0.64L51.25 0.64ZM0.75 0.64L0.75 9.47L2.46 9.47Q4.89 9.47 6.19 8.31Q6.42 8.1 6.61 7.86L6.61 7.86Q7.49 6.75 7.49 4.94Q7.49 3.06 6.56 2Q5.36 0.64 2.61 0.64L0.75 0.64ZM22.8 12L22.8 11.36L28.08 11.36L28.08 12L22.8 12ZM29.06 12L29.06 11.36L34.33 11.36L34.33 12L29.06 12ZM53.46 11.36L58.7 11.36L58.7 12L53.46 12L53.46 11.36ZM59.67 12L59.67 11.36L64.99 11.36L64.99 12L59.67 12Z" fill="#F5F5F5" fill-opacity="1.000000" fill-rule="evenodd"/>
	<path id="Union" d="M-0.01 10.11L-0.01 0L2.73 0Q5.44 0 6.86 1.25Q7.1 1.46 7.29 1.71Q8.27 2.91 8.27 4.91Q8.27 6.42 7.62 7.56Q7.28 8.17 6.75 8.67Q6.61 8.8 6.46 8.92L6.46 8.92Q4.99 10.11 2.57 10.11L-0.01 10.11ZM9.09 10.11L9.09 0L14.19 0L14.19 0.64L9.85 0.64L9.85 4.69L13.88 4.69L13.88 4.7L15.48 4.7L15.48 0L20.58 0L20.58 0.64L16.23 0.64L16.23 4.7L17.84 4.7L17.84 5.33L16.23 5.33L16.23 10.11L15.48 10.11L15.48 5.33L13.48 5.33L13.48 5.33L9.85 5.33L9.85 9.47L14.44 9.47L14.44 10.11L9.09 10.11ZM34.33 0L35.08 0L35.08 10.11L34.33 10.11L34.33 0ZM44.2 10.11L37.7 1.93Q37.5 1.69 37.35 1.44L37.25 1.3L37.22 1.3C37.23 1.42 37.24 1.57 37.24 1.74L37.24 10.11L36.48 10.11L36.48 0L37.06 0L43.52 8.1C43.66 8.27 43.81 8.49 43.98 8.74L44.02 8.74C43.99 8.42 43.98 8.13 43.98 7.9L43.98 0L44.73 0L44.73 10.11L44.2 10.11ZM46.13 0L46.88 0L46.88 10.11L46.13 10.11L46.13 0ZM51.25 0.64L51.25 10.11L50.5 10.11L50.5 0.64L47.35 0.64L47.35 0L54.4 0L54.4 0.64L51.25 0.64ZM0.75 0.64L0.75 9.47L2.46 9.47Q4.89 9.47 6.19 8.31Q6.42 8.1 6.61 7.86L6.61 7.86Q7.49 6.75 7.49 4.94Q7.49 3.06 6.56 2Q5.36 0.64 2.61 0.64L0.75 0.64ZM22.8 12L22.8 11.36L28.08 11.36L28.08 12L22.8 12ZM29.06 12L29.06 11.36L34.33 11.36L34.33 12L29.06 12ZM53.46 11.36L58.7 11.36L58.7 12L53.46 12L53.46 11.36ZM59.67 12L59.67 11.36L64.99 11.36L64.99 12L59.67 12Z" fill="#FFFFFF" fill-opacity="0.500000" fill-rule="evenodd"/>
</svg>
