<svg width="41.000000" height="7.000000" viewBox="0 0 41 7" fill="none" xmlns="http://www.w3.org/2000/svg" xmlns:xlink="http://www.w3.org/1999/xlink">
	<desc>
			Created with Pixso.
	</desc>
	<defs/>
	<path id="Union" d="M0 5.56L0 -0.75L1.7 -0.75Q3.4 -0.75 4.28 0.03Q4.43 0.16 4.56 0.31Q5.17 1.07 5.17 2.32Q5.17 3.26 4.76 3.97Q4.55 4.35 4.22 4.67Q4.13 4.75 4.04 4.82L4.04 4.82Q3.12 5.56 1.6 5.56L0 5.56ZM5.68 5.56L5.68 -0.75L8.87 -0.75L8.87 -0.35L6.15 -0.35L6.15 2.18L8.67 2.18L8.67 2.18L9.67 2.18L9.67 -0.75L12.86 -0.75L12.86 -0.35L10.15 -0.35L10.15 2.18L11.15 2.18L11.15 2.58L10.15 2.58L10.15 5.56L9.67 5.56L9.67 2.58L8.43 2.58L8.43 2.58L6.15 2.58L6.15 5.17L9.02 5.17L9.02 5.56L5.68 5.56ZM21.45 -0.75L21.92 -0.75L21.92 5.56L21.45 5.56L21.45 -0.75ZM27.62 5.56L23.56 0.46Q23.44 0.3 23.34 0.15L23.28 0.06L23.26 0.06Q23.27 0.17 23.27 0.34L23.27 5.56L22.8 5.56L22.8 -0.75L23.16 -0.75L27.2 4.31C27.28 4.42 27.38 4.55 27.49 4.71L27.51 4.71Q27.49 4.41 27.49 4.18L27.49 -0.75L27.96 -0.75L27.96 5.56L27.62 5.56ZM28.83 -0.75L29.3 -0.75L29.3 5.56L28.83 5.56L28.83 -0.75ZM32.03 -0.35L32.03 5.56L31.56 5.56L31.56 -0.35L29.59 -0.35L29.59 -0.75L34 -0.75L34 -0.35L32.03 -0.35ZM0.47 -0.35L0.47 5.17L1.54 5.17Q3.05 5.17 3.87 4.44Q4.01 4.31 4.13 4.16L4.13 4.16Q4.68 3.46 4.68 2.33Q4.68 1.16 4.1 0.5Q3.35 -0.35 1.63 -0.35L0.47 -0.35ZM14.25 6.75L14.25 6.35L17.55 6.35L17.55 6.75L14.25 6.75ZM18.16 6.75L18.16 6.35L21.45 6.35L21.45 6.75L18.16 6.75ZM33.41 6.35L36.69 6.35L36.69 6.75L33.41 6.75L33.41 6.35ZM37.29 6.75L37.29 6.35L40.62 6.35L40.62 6.75L37.29 6.75Z" fill="#F5F5F5" fill-opacity="1.000000" fill-rule="evenodd"/>
	<path id="Union" d="M0 5.56L0 -0.75L1.7 -0.75Q3.4 -0.75 4.28 0.03Q4.43 0.16 4.56 0.31Q5.17 1.07 5.17 2.32Q5.17 3.26 4.76 3.97Q4.55 4.35 4.22 4.67Q4.13 4.75 4.04 4.82L4.04 4.82Q3.12 5.56 1.6 5.56L0 5.56ZM5.68 5.56L5.68 -0.75L8.87 -0.75L8.87 -0.35L6.15 -0.35L6.15 2.18L8.67 2.18L8.67 2.18L9.67 2.18L9.67 -0.75L12.86 -0.75L12.86 -0.35L10.15 -0.35L10.15 2.18L11.15 2.18L11.15 2.58L10.15 2.58L10.15 5.56L9.67 5.56L9.67 2.58L8.43 2.58L8.43 2.58L6.15 2.58L6.15 5.17L9.02 5.17L9.02 5.56L5.68 5.56ZM21.45 -0.75L21.92 -0.75L21.92 5.56L21.45 5.56L21.45 -0.75ZM27.62 5.56L23.56 0.46Q23.44 0.3 23.34 0.15L23.28 0.06L23.26 0.06Q23.27 0.17 23.27 0.34L23.27 5.56L22.8 5.56L22.8 -0.75L23.16 -0.75L27.2 4.31C27.28 4.42 27.38 4.55 27.49 4.71L27.51 4.71Q27.49 4.41 27.49 4.18L27.49 -0.75L27.96 -0.75L27.96 5.56L27.62 5.56ZM28.83 -0.75L29.3 -0.75L29.3 5.56L28.83 5.56L28.83 -0.75ZM32.03 -0.35L32.03 5.56L31.56 5.56L31.56 -0.35L29.59 -0.35L29.59 -0.75L34 -0.75L34 -0.35L32.03 -0.35ZM0.47 -0.35L0.47 5.17L1.54 5.17Q3.05 5.17 3.87 4.44Q4.01 4.31 4.13 4.16L4.13 4.16Q4.68 3.46 4.68 2.33Q4.68 1.16 4.1 0.5Q3.35 -0.35 1.63 -0.35L0.47 -0.35ZM14.25 6.75L14.25 6.35L17.55 6.35L17.55 6.75L14.25 6.75ZM18.16 6.75L18.16 6.35L21.45 6.35L21.45 6.75L18.16 6.75ZM33.41 6.35L36.69 6.35L36.69 6.75L33.41 6.75L33.41 6.35ZM37.29 6.75L37.29 6.35L40.62 6.35L40.62 6.75L37.29 6.75Z" fill="#FFFFFF" fill-opacity="0.500000" fill-rule="evenodd"/>
</svg>
