<svg width="20.000000" height="20.000000" viewBox="0 0 20 20" fill="none" xmlns="http://www.w3.org/2000/svg" xmlns:xlink="http://www.w3.org/1999/xlink">
	<desc>
			Created with Pixso.
	</desc>
	<defs>
		<clipPath id="clip74_368">
			<rect id="ic:baseline-telegram" width="20.000000" height="20.000000" fill="white" fill-opacity="0"/>
		</clipPath>
	</defs>
	<rect id="ic:baseline-telegram" width="20.000000" height="20.000000" fill="#FFFFFF" fill-opacity="0"/>
	<g clip-path="url(#clip74_368)">
		<path id="Vector" d="M10 1.66C5.4 1.66 1.66 5.4 1.66 10C1.66 14.6 5.4 18.33 10 18.33C14.6 18.33 18.33 14.6 18.33 10C18.33 5.4 14.6 1.66 10 1.66ZM13.86 7.33C13.74 8.65 13.2 11.85 12.92 13.32C12.8 13.95 12.57 14.15 12.35 14.18C11.87 14.22 11.5 13.86 11.04 13.55C10.3 13.07 9.89 12.77 9.18 12.3C8.35 11.76 8.89 11.46 9.36 10.98C9.49 10.85 11.62 8.91 11.66 8.74C11.67 8.71 11.67 8.68 11.66 8.66C11.65 8.63 11.64 8.61 11.62 8.59C11.57 8.55 11.5 8.56 11.45 8.57C11.37 8.59 10.2 9.36 7.93 10.9C7.6 11.12 7.3 11.24 7.03 11.23C6.73 11.22 6.16 11.06 5.74 10.92C5.21 10.75 4.8 10.66 4.84 10.37C4.85 10.22 5.06 10.07 5.45 9.91C7.89 8.85 9.5 8.15 10.31 7.82C12.63 6.85 13.1 6.69 13.42 6.69C13.49 6.69 13.65 6.7 13.75 6.79C13.83 6.85 13.85 6.95 13.86 7.01C13.85 7.06 13.87 7.21 13.86 7.33Z" fill="#F5F5F5" fill-opacity="1.000000" fill-rule="evenodd"/>
		<path id="Vector" d="M10 1.66C5.4 1.66 1.66 5.4 1.66 10C1.66 14.6 5.4 18.33 10 18.33C14.6 18.33 18.33 14.6 18.33 10C18.33 5.4 14.6 1.66 10 1.66ZM13.86 7.33C13.74 8.65 13.2 11.85 12.92 13.32C12.8 13.95 12.57 14.15 12.35 14.18C11.87 14.22 11.5 13.86 11.04 13.55C10.3 13.07 9.89 12.77 9.18 12.3C8.35 11.76 8.89 11.46 9.36 10.98C9.49 10.85 11.62 8.91 11.66 8.74C11.67 8.71 11.67 8.68 11.66 8.66C11.65 8.63 11.64 8.61 11.62 8.59C11.57 8.55 11.5 8.56 11.45 8.57C11.37 8.59 10.2 9.36 7.93 10.9C7.6 11.12 7.3 11.24 7.03 11.23C6.73 11.22 6.16 11.06 5.74 10.92C5.21 10.75 4.8 10.66 4.84 10.37C4.85 10.22 5.06 10.07 5.45 9.91C7.89 8.85 9.5 8.15 10.31 7.82C12.63 6.85 13.1 6.69 13.42 6.69C13.49 6.69 13.65 6.7 13.75 6.79C13.83 6.85 13.85 6.95 13.86 7.01C13.85 7.06 13.87 7.21 13.86 7.33Z" fill="#FFFFFF" fill-opacity="0.500000" fill-rule="evenodd"/>
	</g>
</svg>
