<svg width="20.000000" height="20.000000" viewBox="0 0 20 20" fill="none" xmlns="http://www.w3.org/2000/svg" xmlns:xlink="http://www.w3.org/1999/xlink">
	<desc>
			Created with Pixso.
	</desc>
	<defs>
		<clipPath id="clip74_366">
			<rect id="basil:viber-solid" width="20.000000" height="20.000000" fill="white" fill-opacity="0"/>
		</clipPath>
	</defs>
	<rect id="basil:viber-solid" width="20.000000" height="20.000000" fill="#FFFFFF" fill-opacity="0"/>
	<g clip-path="url(#clip74_366)">
		<path id="Vector" d="M13.89 2.19C11.27 1.6 8.55 1.6 5.93 2.19L5.65 2.25C4.91 2.41 4.23 2.78 3.69 3.31C3.15 3.83 2.76 4.5 2.58 5.23C1.91 7.85 1.91 10.59 2.58 13.21C2.75 13.91 3.11 14.55 3.62 15.06C4.12 15.58 4.75 15.95 5.45 16.15L5.83 18.46C5.85 18.53 5.88 18.6 5.93 18.66C5.97 18.71 6.04 18.76 6.11 18.78C6.18 18.81 6.25 18.81 6.33 18.8C6.4 18.78 6.47 18.75 6.52 18.7L8.8 16.66C10.51 16.77 12.22 16.63 13.89 16.26L14.17 16.2C14.91 16.03 15.59 15.66 16.13 15.14C16.67 14.61 17.06 13.95 17.25 13.21C17.91 10.59 17.91 7.85 17.25 5.23C17.06 4.5 16.67 3.83 16.13 3.31C15.59 2.78 14.91 2.41 14.17 2.25L13.89 2.19ZM6.63 5.16C6.48 5.14 6.32 5.17 6.18 5.25L6.17 5.25C5.86 5.44 5.58 5.67 5.34 5.94C5.14 6.17 5.03 6.4 5 6.63C4.99 6.76 5 6.9 5.04 7.02L5.05 7.03C5.28 7.69 5.57 8.33 5.93 8.93C6.39 9.77 6.96 10.54 7.62 11.24L7.64 11.27L7.67 11.29L7.69 11.31L7.71 11.33C8.41 12 9.19 12.57 10.03 13.03C11 13.56 11.58 13.8 11.93 13.91L11.93 13.91C12.03 13.94 12.13 13.96 12.22 13.96C12.52 13.94 12.8 13.81 13.02 13.61C13.29 13.37 13.52 13.09 13.7 12.78L13.7 12.77C13.87 12.45 13.81 12.16 13.57 11.95C13.09 11.53 12.56 11.15 12 10.83C11.63 10.63 11.25 10.75 11.1 10.95L10.77 11.37C10.6 11.57 10.3 11.54 10.3 11.54L10.29 11.55C8.01 10.97 7.4 8.66 7.4 8.66C7.4 8.66 7.38 8.35 7.59 8.19L8 7.86C8.19 7.7 8.33 7.32 8.12 6.95C7.8 6.39 7.42 5.87 7 5.38C6.9 5.27 6.78 5.19 6.63 5.16L6.63 5.16ZM10.48 4.16C10.37 4.16 10.26 4.21 10.18 4.28C10.1 4.36 10.06 4.47 10.06 4.58C10.06 4.69 10.1 4.79 10.18 4.87C10.26 4.95 10.37 5 10.48 5C11.53 5 12.41 5.34 13.1 6C13.46 6.36 13.73 6.79 13.91 7.26C14.1 7.73 14.18 8.23 14.16 8.73C14.16 8.78 14.16 8.84 14.18 8.89C14.2 8.94 14.23 8.99 14.27 9.03C14.34 9.11 14.45 9.16 14.56 9.16C14.67 9.17 14.78 9.13 14.86 9.05C14.94 8.98 14.99 8.87 14.99 8.76C15.02 8.15 14.92 7.53 14.69 6.95C14.47 6.38 14.12 5.85 13.69 5.41L13.68 5.4C12.82 4.58 11.73 4.16 10.48 4.16ZM10.45 5.53C10.34 5.53 10.23 5.58 10.15 5.65C10.08 5.73 10.03 5.84 10.03 5.95C10.03 6.06 10.08 6.16 10.15 6.24C10.23 6.32 10.34 6.37 10.45 6.37L10.46 6.37C11.22 6.42 11.78 6.67 12.16 7.09C12.56 7.52 12.77 8.05 12.75 8.71C12.75 8.82 12.79 8.93 12.87 9C12.94 9.08 13.05 9.13 13.16 9.13C13.27 9.14 13.38 9.09 13.46 9.02C13.54 8.94 13.58 8.84 13.59 8.73C13.61 7.86 13.33 7.12 12.78 6.52L12.78 6.52C12.21 5.92 11.44 5.6 10.51 5.53L10.49 5.53L10.45 5.53ZM10.43 6.93C10.38 6.92 10.32 6.93 10.27 6.95C10.22 6.96 10.17 6.99 10.12 7.03C10.08 7.06 10.05 7.11 10.02 7.16C10 7.21 9.98 7.27 9.98 7.32C9.98 7.38 9.99 7.43 10.01 7.49C10.02 7.54 10.05 7.59 10.09 7.63C10.13 7.67 10.18 7.7 10.23 7.72C10.28 7.75 10.33 7.76 10.39 7.76C10.74 7.78 10.96 7.88 11.1 8.02C11.24 8.17 11.35 8.39 11.37 8.75C11.37 8.8 11.38 8.86 11.4 8.91C11.42 8.96 11.46 9.01 11.5 9.05C11.54 9.08 11.59 9.11 11.64 9.13C11.69 9.15 11.75 9.16 11.8 9.16C11.86 9.15 11.92 9.14 11.97 9.12C12.02 9.09 12.06 9.06 12.1 9.01C12.13 8.97 12.16 8.92 12.18 8.87C12.2 8.82 12.2 8.76 12.2 8.7C12.17 8.2 12.01 7.76 11.69 7.44C11.37 7.11 10.93 6.95 10.43 6.93Z" fill="#F5F5F5" fill-opacity="1.000000" fill-rule="evenodd"/>
		<path id="Vector" d="M13.89 2.19C11.27 1.6 8.55 1.6 5.93 2.19L5.65 2.25C4.91 2.41 4.23 2.78 3.69 3.31C3.15 3.83 2.76 4.5 2.58 5.23C1.91 7.85 1.91 10.59 2.58 13.21C2.75 13.91 3.11 14.55 3.62 15.06C4.12 15.58 4.75 15.95 5.45 16.15L5.83 18.46C5.85 18.53 5.88 18.6 5.93 18.66C5.97 18.71 6.04 18.76 6.11 18.78C6.18 18.81 6.25 18.81 6.33 18.8C6.4 18.78 6.47 18.75 6.52 18.7L8.8 16.66C10.51 16.77 12.22 16.63 13.89 16.26L14.17 16.2C14.91 16.03 15.59 15.66 16.13 15.14C16.67 14.61 17.06 13.95 17.25 13.21C17.91 10.59 17.91 7.85 17.25 5.23C17.06 4.5 16.67 3.83 16.13 3.31C15.59 2.78 14.91 2.41 14.17 2.25L13.89 2.19ZM6.63 5.16C6.48 5.14 6.32 5.17 6.18 5.25L6.17 5.25C5.86 5.44 5.58 5.67 5.34 5.94C5.14 6.17 5.03 6.4 5 6.63C4.99 6.76 5 6.9 5.04 7.02L5.05 7.03C5.28 7.69 5.57 8.33 5.93 8.93C6.39 9.77 6.96 10.54 7.62 11.24L7.64 11.27L7.67 11.29L7.69 11.31L7.71 11.33C8.41 12 9.19 12.57 10.03 13.03C11 13.56 11.58 13.8 11.93 13.91L11.93 13.91C12.03 13.94 12.13 13.96 12.22 13.96C12.52 13.94 12.8 13.81 13.02 13.61C13.29 13.37 13.52 13.09 13.7 12.78L13.7 12.77C13.87 12.45 13.81 12.16 13.57 11.95C13.09 11.53 12.56 11.15 12 10.83C11.63 10.63 11.25 10.75 11.1 10.95L10.77 11.37C10.6 11.57 10.3 11.54 10.3 11.54L10.29 11.55C8.01 10.97 7.4 8.66 7.4 8.66C7.4 8.66 7.38 8.35 7.59 8.19L8 7.86C8.19 7.7 8.33 7.32 8.12 6.95C7.8 6.39 7.42 5.87 7 5.38C6.9 5.27 6.78 5.19 6.63 5.16L6.63 5.16ZM10.48 4.16C10.37 4.16 10.26 4.21 10.18 4.28C10.1 4.36 10.06 4.47 10.06 4.58C10.06 4.69 10.1 4.79 10.18 4.87C10.26 4.95 10.37 5 10.48 5C11.53 5 12.41 5.34 13.1 6C13.46 6.36 13.73 6.79 13.91 7.26C14.1 7.73 14.18 8.23 14.16 8.73C14.16 8.78 14.16 8.84 14.18 8.89C14.2 8.94 14.23 8.99 14.27 9.03C14.34 9.11 14.45 9.16 14.56 9.16C14.67 9.17 14.78 9.13 14.86 9.05C14.94 8.98 14.99 8.87 14.99 8.76C15.02 8.15 14.92 7.53 14.69 6.95C14.47 6.38 14.12 5.85 13.69 5.41L13.68 5.4C12.82 4.58 11.73 4.16 10.48 4.16ZM10.45 5.53C10.34 5.53 10.23 5.58 10.15 5.65C10.08 5.73 10.03 5.84 10.03 5.95C10.03 6.06 10.08 6.16 10.15 6.24C10.23 6.32 10.34 6.37 10.45 6.37L10.46 6.37C11.22 6.42 11.78 6.67 12.16 7.09C12.56 7.52 12.77 8.05 12.75 8.71C12.75 8.82 12.79 8.93 12.87 9C12.94 9.08 13.05 9.13 13.16 9.13C13.27 9.14 13.38 9.09 13.46 9.02C13.54 8.94 13.58 8.84 13.59 8.73C13.61 7.86 13.33 7.12 12.78 6.52L12.78 6.52C12.21 5.92 11.44 5.6 10.51 5.53L10.49 5.53L10.45 5.53ZM10.43 6.93C10.38 6.92 10.32 6.93 10.27 6.95C10.22 6.96 10.17 6.99 10.12 7.03C10.08 7.06 10.05 7.11 10.02 7.16C10 7.21 9.98 7.27 9.98 7.32C9.98 7.38 9.99 7.43 10.01 7.49C10.02 7.54 10.05 7.59 10.09 7.63C10.13 7.67 10.18 7.7 10.23 7.72C10.28 7.75 10.33 7.76 10.39 7.76C10.74 7.78 10.96 7.88 11.1 8.02C11.24 8.17 11.35 8.39 11.37 8.75C11.37 8.8 11.38 8.86 11.4 8.91C11.42 8.96 11.46 9.01 11.5 9.05C11.54 9.08 11.59 9.11 11.64 9.13C11.69 9.15 11.75 9.16 11.8 9.16C11.86 9.15 11.92 9.14 11.97 9.12C12.02 9.09 12.06 9.06 12.1 9.01C12.13 8.97 12.16 8.92 12.18 8.87C12.2 8.82 12.2 8.76 12.2 8.7C12.17 8.2 12.01 7.76 11.69 7.44C11.37 7.11 10.93 6.95 10.43 6.93Z" fill="#FFFFFF" fill-opacity="0.500000" fill-rule="evenodd"/>
	</g>
</svg>
