<svg width="25.000000" height="27.000000" viewBox="0 0 25 27" fill="none" xmlns="http://www.w3.org/2000/svg" xmlns:xlink="http://www.w3.org/1999/xlink">
	<desc>
			Created with Pixso.
	</desc>
	<defs>
		<clipPath id="clip60_432">
			<rect id="Видео" width="24.856619" height="26.400002" transform="translate(-0.235107 -0.300049)" fill="white" fill-opacity="0"/>
		</clipPath>
	</defs>
	<g clip-path="url(#clip60_432)">
		<path id="path" d="M4.42 3C3.56 3 2.87 3.73 2.87 4.64L2.87 21.14C2.87 22.06 3.56 22.8 4.42 22.8L19.96 22.8C20.81 22.8 21.51 22.06 21.51 21.14L21.51 4.64C21.51 3.73 20.81 3 19.96 3L4.42 3Z" stroke="#FFFBFB" stroke-opacity="1.000000" stroke-width="1.500000" stroke-linejoin="round"/>
		<path id="path" d="M10.38 11.76L13.09 13.43L15.81 15.1L13.09 16.76L10.38 18.43L10.38 15.1L10.38 11.76Z" stroke="#FFFBFB" stroke-opacity="1.000000" stroke-width="1.500000" stroke-linejoin="round"/>
		<path id="path" d="M2.87 7.94L21.51 " stroke="#FCF9F9" stroke-opacity="1.000000" stroke-width="1.500000" stroke-linejoin="round" stroke-linecap="round"/>
		<path id="path" d="M14.37 8.32L14.38 8.34C14.15 8.7 13.7 8.8 13.34 8.58C12.99 8.36 12.88 7.9 13.11 7.55L13.13 7.54L14.37 8.32ZM16.22 2.62L16.21 2.6C16.44 2.24 16.89 2.14 17.25 2.36C17.6 2.58 17.71 3.04 17.48 3.39L17.46 3.4L16.22 2.62Z" fill="#FFFFFF" fill-opacity="0.590000" fill-rule="nonzero"/>
		<path id="path" d="M13.74 7.94L16.85 " stroke="#FFFBFB" stroke-opacity="1.000000" stroke-width="1.500000" stroke-linejoin="round" stroke-linecap="round"/>
		<path id="path" d="M7.53 7.94L10.63 " stroke="#FFFBFB" stroke-opacity="1.000000" stroke-width="1.500000" stroke-linejoin="round" stroke-linecap="round"/>
	</g>
</svg>
