<svg width="25.000000" height="27.000000" viewBox="0 0 25 27" fill="none" xmlns="http://www.w3.org/2000/svg" xmlns:xlink="http://www.w3.org/1999/xlink">
	<desc>
			Created with Pixso.
	</desc>
	<defs>
		<clipPath id="clip142_809">
			<rect id="Видео" width="24.856619" height="26.400002" transform="translate(-0.233887 -0.300049)" fill="white" fill-opacity="0"/>
		</clipPath>
	</defs>
	<g clip-path="url(#clip142_809)">
		<path id="Union" d="M10.697 2.25L16.7915 2.25C16.8311 2.24683 16.8713 2.24683 16.9114 2.25L19.9624 2.25C20.1201 2.25 20.2742 2.26611 20.425 2.2981C20.5784 2.33057 20.7283 2.37988 20.8745 2.44556C20.9812 2.49341 21.0833 2.54883 21.1802 2.61182C21.3347 2.71191 21.4771 2.83105 21.6069 2.96924C21.8157 3.19067 21.9768 3.44434 22.0908 3.73022C22.1392 3.85229 22.1777 3.97632 22.2061 4.10278L22.2061 4.10303L22.2063 4.10327C22.2461 4.28101 22.2661 4.46338 22.2661 4.6499L22.2661 21.1499C22.2661 21.4697 22.2075 21.7764 22.0908 22.0698C21.9768 22.3555 21.8157 22.6094 21.6069 22.8308C21.3955 23.0557 21.1511 23.2302 20.8745 23.3545C20.7283 23.4202 20.5784 23.4692 20.425 23.502C20.2742 23.5339 20.1201 23.55 19.9624 23.55L4.427 23.55C4.26953 23.55 4.11548 23.5339 3.9646 23.502L3.96436 23.502C3.81104 23.4692 3.66138 23.4202 3.51514 23.3545C3.4082 23.3066 3.3064 23.251 3.20923 23.1882C3.05469 23.0881 2.9126 22.969 2.78247 22.8308C2.57397 22.6094 2.4126 22.3557 2.29883 22.0698C2.18188 21.7764 2.12354 21.4697 2.12354 21.1499L2.12354 7.97803C2.12329 7.96875 2.12305 7.95947 2.12305 7.94995C2.12305 7.94067 2.12329 7.9314 2.12354 7.92212L2.12354 4.6499C2.12354 4.46313 2.14355 4.28076 2.18335 4.10303L2.18335 4.10303C2.21167 3.97656 2.25024 3.85229 2.29883 3.73022C2.36475 3.56494 2.44653 3.41016 2.54419 3.26636L2.54419 3.26636L2.54419 3.26636L2.54419 3.26636L2.54419 3.26636L2.54419 3.26636C2.61523 3.16162 2.69458 3.0625 2.78247 2.96924C2.9126 2.83105 3.05469 2.71191 3.20947 2.61182L3.20947 2.61182L3.20947 2.61182C3.3064 2.54883 3.4082 2.49341 3.51514 2.44556C3.66138 2.37988 3.81128 2.33057 3.9646 2.2981C4.11548 2.26611 4.26953 2.25 4.427 2.25L10.5771 2.25C10.6167 2.24683 10.657 2.24683 10.697 2.25ZM9.28442 3.75L4.427 3.75C4.34131 3.75 4.26025 3.76343 4.18384 3.79004C4.07031 3.82983 3.90332 3.9751 3.81055 4.07349C3.76245 4.1377 3.72314 4.20825 3.69238 4.28516C3.6792 4.31836 3.66772 4.35229 3.65845 4.38647L3.65845 4.38647C3.63525 4.47119 3.62354 4.55908 3.62354 4.6499L3.62354 7.19995L7.1189 7.19995L9.28442 3.75ZM8.88989 7.19995L11.0554 3.75L15.4988 3.75L13.3333 7.19995L8.88989 7.19995ZM7.47314 8.69995C7.51587 8.70386 7.55884 8.70361 7.60107 8.69995L13.6875 8.69995C13.7302 8.70386 13.7732 8.70361 13.8154 8.69995L20.7661 8.69995L20.7661 21.1499C20.7661 21.241 20.7544 21.3289 20.7312 21.4136L20.7312 21.4136L20.7312 21.4136C20.7217 21.4478 20.7104 21.4814 20.697 21.5149C20.6538 21.6238 20.593 21.7197 20.5149 21.8025C20.3596 21.9675 20.1755 22.05 19.9624 22.05L4.427 22.05C4.34131 22.05 4.26025 22.0366 4.18384 22.0098C4.07031 21.9702 3.96729 21.9011 3.87451 21.8025C3.79663 21.7197 3.73584 21.6238 3.69238 21.5149C3.6792 21.4814 3.66797 21.4478 3.65845 21.4136C3.63525 21.3289 3.62354 21.241 3.62354 21.1499L3.62354 8.69995L7.47314 8.69995ZM20.7661 7.19995L15.1042 7.19995L17.2698 3.75L19.9624 3.75C20.0483 3.75 20.1294 3.76343 20.2058 3.79004C20.3191 3.82983 20.4221 3.89893 20.5149 3.99731C20.593 4.08032 20.6538 4.17627 20.697 4.28516C20.7104 4.31836 20.7217 4.35229 20.7312 4.38647L20.7312 4.38696C20.7544 4.47144 20.7661 4.55908 20.7661 4.6499L20.7661 7.19995ZM13.4924 12.7942L10.7737 11.1272C10.7136 11.0903 10.6509 11.0627 10.5854 11.0442C10.5203 11.0259 10.4521 11.0166 10.3816 11.0166C10.1316 11.0166 9.94409 11.0791 9.81909 11.2041C9.69409 11.3291 9.63159 11.5166 9.63159 11.7666L9.63159 18.4351C9.63159 18.5762 9.66846 18.7068 9.74243 18.8271C9.87305 19.04 10.0244 19.1672 10.1963 19.2085C10.3682 19.2498 10.5605 19.2051 10.7737 19.0745L16.2112 15.7402C16.3132 15.6775 16.3958 15.595 16.4585 15.4929C16.7197 15.0667 16.6375 14.7227 16.2112 14.4614L13.4924 12.7942ZM11.1316 13.1062L11.1316 17.0952L14.3843 15.1008L12.7083 14.073L11.1316 13.1062Z" clip-rule="evenodd" fill="#FFFBFB" fill-opacity="1.000000" fill-rule="evenodd"/>
	</g>
</svg>
