<svg width="20.000000" height="20.000000" viewBox="0 0 20 20" fill="none" xmlns="http://www.w3.org/2000/svg" xmlns:xlink="http://www.w3.org/1999/xlink">
	<desc>
			Created with Pixso.
	</desc>
	<defs>
		<clipPath id="clip74_370">
			<rect id="mingcute:whatsapp-fill" width="20.000000" height="20.000000" fill="white" fill-opacity="0"/>
		</clipPath>
	</defs>
	<rect id="mingcute:whatsapp-fill" width="20.000000" height="20.000000" fill="#FFFFFF" fill-opacity="0"/>
	<g clip-path="url(#clip74_370)">
		<path id="Vector" d="M10 1.66C5.39 1.66 1.66 5.39 1.66 10C1.66 11.57 2.1 13.05 2.86 14.3L2.12 16.83C2.07 16.97 2.07 17.13 2.11 17.27C2.15 17.42 2.22 17.55 2.33 17.66C2.44 17.77 2.57 17.84 2.72 17.88C2.86 17.92 3.02 17.92 3.16 17.87L5.69 17.13C6.99 17.92 8.48 18.33 10 18.33C14.6 18.33 18.33 14.6 18.33 10C18.33 5.39 14.6 1.66 10 1.66ZM8.11 11.88C9.8 13.57 11.41 13.79 11.97 13.81C12.84 13.84 13.68 13.18 14.01 12.42C14.05 12.32 14.06 12.22 14.05 12.11C14.04 12.01 14 11.91 13.93 11.83C13.48 11.25 12.86 10.83 12.26 10.41C12.13 10.32 11.98 10.29 11.82 10.31C11.67 10.34 11.54 10.42 11.45 10.54L10.95 11.3C10.92 11.35 10.88 11.37 10.83 11.39C10.78 11.4 10.73 11.39 10.69 11.37C10.35 11.17 9.86 10.84 9.5 10.49C9.15 10.13 8.84 9.66 8.66 9.34C8.64 9.3 8.64 9.26 8.65 9.21C8.66 9.17 8.68 9.13 8.72 9.1L9.49 8.53C9.6 8.43 9.67 8.3 9.69 8.16C9.71 8.01 9.67 7.87 9.59 7.75C9.22 7.2 8.78 6.51 8.15 6.04C8.07 5.99 7.97 5.95 7.87 5.94C7.77 5.93 7.67 5.94 7.58 5.98C6.81 6.31 6.15 7.15 6.18 8.02C6.2 8.59 6.43 10.2 8.11 11.88Z" fill="#F5F5F5" fill-opacity="1.000000" fill-rule="evenodd"/>
		<path id="Vector" d="M10 1.66C5.39 1.66 1.66 5.39 1.66 10C1.66 11.57 2.1 13.05 2.86 14.3L2.12 16.83C2.07 16.97 2.07 17.13 2.11 17.27C2.15 17.42 2.22 17.55 2.33 17.66C2.44 17.77 2.57 17.84 2.72 17.88C2.86 17.92 3.02 17.92 3.16 17.87L5.69 17.13C6.99 17.92 8.48 18.33 10 18.33C14.6 18.33 18.33 14.6 18.33 10C18.33 5.39 14.6 1.66 10 1.66ZM8.11 11.88C9.8 13.57 11.41 13.79 11.97 13.81C12.84 13.84 13.68 13.18 14.01 12.42C14.05 12.32 14.06 12.22 14.05 12.11C14.04 12.01 14 11.91 13.93 11.83C13.48 11.25 12.86 10.83 12.26 10.41C12.13 10.32 11.98 10.29 11.82 10.31C11.67 10.34 11.54 10.42 11.45 10.54L10.95 11.3C10.92 11.35 10.88 11.37 10.83 11.39C10.78 11.4 10.73 11.39 10.69 11.37C10.35 11.17 9.86 10.84 9.5 10.49C9.15 10.13 8.84 9.66 8.66 9.34C8.64 9.3 8.64 9.26 8.65 9.21C8.66 9.17 8.68 9.13 8.72 9.1L9.49 8.53C9.6 8.43 9.67 8.3 9.69 8.16C9.71 8.01 9.67 7.87 9.59 7.75C9.22 7.2 8.78 6.51 8.15 6.04C8.07 5.99 7.97 5.95 7.87 5.94C7.77 5.93 7.67 5.94 7.58 5.98C6.81 6.31 6.15 7.15 6.18 8.02C6.2 8.59 6.43 10.2 8.11 11.88Z" fill="#FFFFFF" fill-opacity="0.500000" fill-rule="evenodd"/>
	</g>
</svg>
